<svg id="Layer_1" data-name="Layer 1" xmlns="http://www.w3.org/2000/svg" viewBox="0 0 1120 1080"><defs><style>.cls-1{fill:#203c72;}</style></defs><path class="cls-1" d="M550.85,237.36a5.51,5.51,0,0,0-5.49,5.5v95.07a5.5,5.5,0,0,0,5.49,5.49h17.81a5.48,5.48,0,0,0,5.48-5.49V242.86a5.49,5.49,0,0,0-5.48-5.5Z"/><path class="cls-1" d="M504.33,237.36a5.5,5.5,0,0,0-5.49,5.5v95.07a5.49,5.49,0,0,0,5.49,5.49h17.79a5.49,5.49,0,0,0,5.49-5.49V242.86a5.49,5.49,0,0,0-5.49-5.5Z"/><path class="cls-1" d="M435.18,452.14a328.62,328.62,0,0,1,43.28-54l.58-.74-.29.17s0,0,0,0c-80,34.75-148.64,102.94-196.7,192.05-2.36,4-4.76,7.82-7.05,11.92a443.1,443.1,0,0,0-22.94,48.56c-23.59,58.07-33.85,116-38.15,159.11-.91,7.5-1.74,15-2.4,22.63,0,.39-.1,1.15-.1,1.15H212v.08l105.41.32,16.88.07-.27-1.4c.08-3.69.33-14.53.57-21.18-.33,9.38-.62-27.83,4.26-75C350.61,622.45,385,530.64,435.18,452.14Z"/><path class="cls-1" d="M468.09,229.62H651a3,3,0,0,0,3-3v-7a3,3,0,0,0-3-3H468.09a3,3,0,0,0-3,3v7A3,3,0,0,0,468.09,229.62Z"/><rect class="cls-1" x="465.05" y="354.6" width="188.98" height="13.1" rx="3.04"/><path class="cls-1" d="M908.49,831.6c-.67-7.59-1.5-15.12-2.41-22.62-4.3-43.07-14.55-101-38.15-159.05A438.55,438.55,0,0,0,845,601.38c-2.21-4-4.53-7.67-6.8-11.49-48.07-89.3-116.84-157.62-196.95-192.42h0l-.26-.16.56.75A328.16,328.16,0,0,1,684.83,452C735,530.5,769.4,622.28,781.15,735.72c4.88,47.11,4.61,84.32,4.28,74.92.23,6.66.48,17.49.57,21.19l-.27,1.4,16.8-.07L908,832.85v-.08h.58S908.52,832,908.49,831.6Z"/><path class="cls-1" d="M733.88,398.6c6,4.41,12.87,9.68,20.44,15.92,17.48,14.41,32.18,29.3,45.42,43.28,43.43,45.85,67.5,89.35,91.16,135.83C904,619.41,912.47,643.37,920,664.72a561.83,561.83,0,0,1,20.9,74.65c8.82,44.12,13.3,93.57,13.3,93.57h67.7l-.12-1.1,2.63,1s0-.34,0-.51c-7.43-204.19-135.88-377.48-315.69-450.12l-.69-.28a173.68,173.68,0,0,1,15,9.13C726.25,393.33,730,395.9,733.88,398.6Z"/><path class="cls-1" d="M630.5,206.86c-.31-40.08-31.24-72.5-69.56-73.17V121.81h19.22v-2.08s.06,0,.06-.06V112.6a.66.66,0,0,0-.66-.65h-2.85a.65.65,0,0,0-.65.65v7H560.94V92.22h.4a.83.83,0,0,0,.83-.83V83.83a.83.83,0,0,0-.83-.83H558a.83.83,0,0,0-.83.83v7.56a.83.83,0,0,0,.83.83h.48v27.33H543.18v-7a.66.66,0,0,0-.66-.65h-2.86a.65.65,0,0,0-.64.65v7.07s0,0,0,0v2.1h19.43v11.88C520.1,134.4,489.15,167,489,207.16v.33H630.5Z"/><path class="cls-1" d="M585.6,407.52l-2-1.66,0,427.06,156.66.55s0-4.42,0-6.64C740.31,644.73,677.57,486.65,585.6,407.52Z"/><path class="cls-1" d="M597.11,237.36a5.49,5.49,0,0,0-5.48,5.5v95.07a5.48,5.48,0,0,0,5.48,5.49h17.8a5.48,5.48,0,0,0,5.48-5.49V242.86a5.49,5.49,0,0,0-5.48-5.5Z"/><rect class="cls-1" x="533.68" y="898.33" width="52.38" height="52.38" rx="5.48"/><path class="cls-1" d="M783.48,950.72a5.49,5.49,0,0,0,5.49-5.48V903.87a5.51,5.51,0,0,0-5.49-5.5H742.09a5.5,5.5,0,0,0-5.5,5.5v41.37a5.49,5.49,0,0,0,5.5,5.48Z"/><path class="cls-1" d="M536.38,833.15l0-427.18s-1.31,1.11-2,1.67c-92,79.16-154.69,237.28-154.69,419.42,0,2.22,0,6.64,0,6.64Z"/><path class="cls-1" d="M1048.47,867.76h-2.29s-.09,0-.14,0H956.33V852.15a4.6,4.6,0,0,0-4.6-4.59H908.54a4.58,4.58,0,0,0-4.59,4.59v15.58H789V852.15a4.58,4.58,0,0,0-4.59-4.59H741.23a4.58,4.58,0,0,0-4.59,4.59v15.58H586V852.06a4.59,4.59,0,0,0-4.59-4.6h-43.2a4.6,4.6,0,0,0-4.6,4.6v15.67H383.14V852.06a4.61,4.61,0,0,0-4.6-4.6H335.35a4.61,4.61,0,0,0-4.61,4.6v15.67h-115V852.06a4.61,4.61,0,0,0-4.61-4.6H168a4.6,4.6,0,0,0-4.6,4.6v15.67H74.06s-.09,0-.14,0H71.53a3,3,0,0,0-3,3V879a3.06,3.06,0,0,0,3,3.06h976.94a3.06,3.06,0,0,0,3-3.06V870.8A3,3,0,0,0,1048.47,867.76Z"/><path class="cls-1" d="M950.81,950.72a5.48,5.48,0,0,0,5.48-5.48V903.87a5.5,5.5,0,0,0-5.48-5.5H909.4a5.5,5.5,0,0,0-5.48,5.5v41.37a5.48,5.48,0,0,0,5.48,5.48Z"/><rect class="cls-1" x="330.79" y="898.33" width="52.38" height="52.38" rx="5.48"/><path class="cls-1" d="M1046,963H74a5.5,5.5,0,0,0-5.48,5.49v23A5.48,5.48,0,0,0,74,997H1046a5.49,5.49,0,0,0,5.5-5.49v-23A5.51,5.51,0,0,0,1046,963Z"/><path class="cls-1" d="M98.14,833.18h25.37l23.91.09,0-.09h18.4s4.47-49.46,13.29-93.59A563.76,563.76,0,0,1,200,664.9c7.5-21.34,16-45.32,29.08-71.1,23.65-46.49,47.73-90,91.14-135.87,13.25-14,27.94-28.89,45.42-43.28,7.46-6.15,14.23-11.35,20.16-15.74,4-2.77,7.84-5.41,11.24-7.73A169,169,0,0,1,412,382l-.69.29C231.53,455,103.07,628.32,95.64,832.57c0,.17,0,.51,0,.51h2.52Z"/><path class="cls-1" d="M210.31,950.71a5.48,5.48,0,0,0,5.48-5.49V903.81a5.48,5.48,0,0,0-5.48-5.48H168.89a5.48,5.48,0,0,0-5.49,5.48v41.41a5.49,5.49,0,0,0,5.49,5.49Z"/></svg>