<svg id="Layer_1" data-name="Layer 1" xmlns="http://www.w3.org/2000/svg" viewBox="0 0 936 1080"><defs><style>.cls-1{fill:#fff;}</style></defs><rect class="cls-1" x="241.86" y="935.48" width="457.15" height="25.37"/><rect class="cls-1" x="460.42" y="190.62" width="13.32" height="49.1" rx="2.54"/><rect class="cls-1" x="481.83" y="190.62" width="13.32" height="49.1" rx="2.54"/><rect class="cls-1" x="438.87" y="190.62" width="13.32" height="49.1" rx="2.54"/><rect class="cls-1" x="423.23" y="244.89" width="87.5" height="6.07" rx="1.41"/><path class="cls-1" d="M628.53,465.74c-.31-3.53-.69-7-1.11-10.52-2-19.94-6.74-46.74-17.66-73.6a203.44,203.44,0,0,0-10.63-22.47c-1-1.86-2.13-3.62-3.2-5.41-22.25-41.3-54.07-72.9-91.13-89h0l-.13-.08.26.35a151.53,151.53,0,0,1,20,25c23.22,36.34,39.16,78.83,44.6,131.35,2.26,21.82,2.13,39.05,2,34.7.11,3.08.22,8.1.26,9.81l-.12.64,6.3,0,50.31-.15v0h.27S628.55,465.92,628.53,465.74Z"/><path class="cls-1" d="M479,269.39l-.9-.76V466.35l72.53.25s0-2.05,0-3.07C550.67,379.22,521.62,306,479,269.39Z"/><path class="cls-1" d="M409.4,290.05a152.49,152.49,0,0,1,20-25l.26-.35-.13.08h0c-37.06,16.11-68.88,47.72-91.13,89-1.07,1.8-2.16,3.55-3.2,5.41a203.48,203.48,0,0,0-10.62,22.48C313.71,408.58,309,435.38,307,455.33c-.42,3.48-.81,7-1.12,10.52,0,.18,0,.53,0,.53h.27v0l48.5.15,8.12,0-.13-.64c0-1.7.16-6.73.27-9.82-.16,4.35-.29-12.88,2-34.7C370.25,368.9,386.18,326.4,409.4,290.05Z"/><path class="cls-1" d="M499.83,176.49c-.14-18.55-14.46-33.56-32.2-33.87v-5.51h8.89v-1s0,0,0,0v-3.27a.29.29,0,0,0-.3-.3h-1.32a.29.29,0,0,0-.3.3v3.22h-7V123.42h.19a.39.39,0,0,0,.38-.39v-3.5a.38.38,0,0,0-.38-.38h-1.55a.38.38,0,0,0-.38.38V123a.39.39,0,0,0,.38.39h.22v12.65H459.4v-3.22a.29.29,0,0,0-.3-.3h-1.32a.29.29,0,0,0-.3.3v3.27s0,0,0,0v1h9v5.51c-17.77.32-32.1,15.4-32.18,34v.15h65.52Z"/><rect class="cls-1" x="423.23" y="180.96" width="87.5" height="6.07" rx="1.41"/><path class="cls-1" d="M547.69,265.26c2.78,2,6,4.49,9.47,7.38a231.41,231.41,0,0,1,21,20c20.1,21.23,31.25,41.37,42.2,62.89,6.07,11.94,10,23,13.47,32.91A261.22,261.22,0,0,1,643.53,423c4.09,20.43,6.16,43.33,6.16,43.33H681l0-.51,1.22.46s0-.16,0-.24A234.07,234.07,0,0,0,536,257.68l-.32-.13a79.28,79.28,0,0,1,6.93,4.22Z"/><rect class="cls-1" x="626.42" y="496.65" width="24.25" height="24.24" rx="2.54"/><rect class="cls-1" x="548.95" y="496.65" width="24.25" height="24.24" rx="2.54"/><rect class="cls-1" x="455" y="496.63" width="24.25" height="24.25" rx="2.54"/><path class="cls-1" d="M693.35,482.48h-1.08l0,0H650.68v-7.21a2.12,2.12,0,0,0-2.12-2.13h-20a2.12,2.12,0,0,0-2.12,2.13v7.21H573.21v-7.21a2.12,2.12,0,0,0-2.12-2.13h-20a2.12,2.12,0,0,0-2.12,2.13v7.21H479.24v-7.25a2.12,2.12,0,0,0-2.12-2.13h-20a2.13,2.13,0,0,0-2.13,2.13v7.25H385.3v-7.25a2.12,2.12,0,0,0-2.12-2.13h-20a2.13,2.13,0,0,0-2.13,2.13v7.25H307.81v-7.25a2.13,2.13,0,0,0-2.13-2.13h-20a2.13,2.13,0,0,0-2.13,2.13v7.25H241a1.43,1.43,0,0,0-1.42,1.42v3.81a1.42,1.42,0,0,0,1.42,1.41H693.35a1.41,1.41,0,0,0,1.41-1.41v-3.81A1.41,1.41,0,0,0,693.35,482.48Z"/><rect class="cls-1" x="361.07" y="496.63" width="24.25" height="24.25" rx="2.54"/><rect class="cls-1" x="239.62" y="526.59" width="455.13" height="15.72" rx="2.54"/><path class="cls-1" d="M456.25,466.46V268.68l-.9.77c-42.58,36.65-71.63,109.85-71.63,194.19,0,1,0,3.07,0,3.07Z"/><path class="cls-1" d="M253.36,466.47h11.83l11,0v0h8.52s2.07-22.91,6.15-43.34a262.07,262.07,0,0,1,9.68-34.57c3.47-9.89,7.39-21,13.47-32.92C325,334.11,336.09,314,356.2,292.73a231.26,231.26,0,0,1,21-20c3.51-2.89,6.69-5.33,9.46-7.37,1.81-1.25,3.54-2.45,5.08-3.5a80.11,80.11,0,0,1,6.92-4.22l-.32.13A234.14,234.14,0,0,0,252.2,466.18c0,.08,0,.24,0,.24h1.17Z"/><rect class="cls-1" x="283.57" y="496.63" width="24.25" height="24.25" rx="2.54"/><path class="cls-1" d="M200.12,763.17c-6.11,2-14.54,1.75-20.36-5.73l-14.94-19.2c-4.18-5.43-9.12-6.21-15.91-6.3v18.81c0,6.79,4.65,8,10.86,8.73.68.1.2,3.3-.58,3.3H129.8c-.78,0-1.36-3.2-.58-3.3,4.95-.67,8.05-2.62,8.05-8.73V707.49c0-6.4-3.39-8.24-8.05-9.51-.78-.19-.29-3.39.58-3.29a93.56,93.56,0,0,0,11.15.58c7.18,0,13.88-.58,18.53-.58,14.65,0,24.45,6,24.45,17.94,0,11.25-9.12,16.78-17.27,17.27v.49c3.88,0,6.7,1.64,11,7l14.46,18.14c3,3.78,5.92,4.84,8,4.84C200.9,760.35,200.7,763,200.12,763.17ZM171.7,715.25c0-10.38-6.59-15.52-15.23-15.52-5.72,0-7.56,2.33-7.56,7.76v20h2.82C166.17,727.48,171.7,725,171.7,715.25Z"/><path class="cls-1" d="M215.7,759.48c5.62-1.45,10-2.33,10-9.5V706.91c0-6.21-4-7.86-8.15-8.93-.78-.19-.3-3.39.49-3.29,7.08.77,19.3.58,25.22.58,8.82,0,15.22-.39,23.17-.58,2.33,0,2.33,1.55,1.85,3.78l-2.33,9.21c-.29,1.37-2.72,1.37-3.1,0-1.45-4.75-4.37-7.46-16.49-7.46-6.79,0-9,1.74-9,6.79v15.81c0,2.52,1.26,3,3.2,3h2.13c7.86,0,14.65-.77,18.63-4.36,1-.88,3.1-.68,2.22,1.26L258,734.94c-.78,1.75-2.23,1.56-3.3.1-2.23-3.1-7.18-4.36-12.81-4.36h-1.35c-1.94,0-3.2.48-3.2,3V750c0,5.53,2.33,7.56,10.37,7.56,14.65,0,20.47-6.69,22.8-10.38.68-1.06,3.3-.58,3.3,1.07,0,4.95-4.17,14.75-10.29,14.75-5.42-.3-10.76-.59-18.91-.59-8.92,0-19.49-.29-28.32.59C215.31,763.07,214.92,759.68,215.7,759.48Z"/><path class="cls-1" d="M312.46,736.79v14c0,6.79,4.65,8,10.86,8.73.67.1.19,3.3-.58,3.3H293.35c-.78,0-1.36-3.2-.59-3.3,4.95-.67,8.05-2.62,8.05-8.73V707.49c0-6.4-3.39-8.24-8.05-9.51-.77-.19-.29-3.39.59-3.29a93.35,93.35,0,0,0,11.15.58c7.17,0,13.19-.58,18.14-.58,15,0,27.45,5.53,27.45,20.76C350.09,732.71,333.89,740,312.46,736.79Zm0-29.3V732c16.48,2.33,25.12-1.64,25.12-14.36,0-11.53-7.38-17.94-17.37-17.94C314.1,699.73,312.46,701.86,312.46,707.49Z"/><path class="cls-1" d="M377.41,737.37V706.91c0-6.11-3.1-8.15-7.86-8.73-.78-.1-.19-3.3.58-3.3h26.48c.78,0,1.36,3.2.58,3.3-3.87.48-7.75,1.94-7.75,8.73v30.94c0,13.58,7.85,19.88,18.13,19.88,10.58,0,19-6.3,19-19.88V706.91c0-6.31-3.6-8-8.35-8.73-.67-.1-.19-3.3.59-3.3h21.82c.68,0,1.27,3.2.48,3.3-3.87.48-7.75,1.94-7.75,8.73v30.36c0,17.85-11.55,27.07-27,27.07C392.74,764.34,377.41,757.06,377.41,737.37Zm28.52-66.64c1.74-2.52,9.89,4.95,7.56,6.7L400.78,687c-1.26,1-4.65-2.14-3.68-3.5Z"/><path class="cls-1" d="M518.79,743.19c0,12-11,19.79-27.16,19.79-4.66,0-10.09-.59-17.27-.59a139.21,139.21,0,0,0-15.23.59c-.87.09-1.35-3.3-.58-3.5,5.63-1.45,10-2.33,10-9.5V706.91c0-6.21-4-7.86-8.14-8.93-.78-.19-.3-3.39.48-3.29a105.19,105.19,0,0,0,11.73.58c7.77,0,13.49-.58,17.76-.58,12.51,0,22.79,5.24,22.89,15.9.1,7.86-5.43,13.29-12.22,14.65v.58C510.06,725.82,518.79,732.32,518.79,743.19Zm-38.61-36.28v17.27h10c7,0,11.06-3.5,11.06-11,0-9.21-6.2-13.48-14.16-13.48C481.93,699.73,480.18,701.48,480.18,706.91Zm26.09,38.41c0-10.67-7.08-16.3-16.1-16.3h-10v21c0,5.34,2.72,7.95,11.15,7.95S506.27,755.41,506.27,745.32Z"/><path class="cls-1" d="M537.28,759.48c5.62-1.45,10-2.33,10-9.5V706.91c0-6.79-4-8.15-8.15-8.73-.78-.1-.2-3.3.49-3.3h26.76c.68,0,1.17,3.2.49,3.3-4.07.48-8,1.94-8,8.73V750c0,5.53,2.33,7.56,10.37,7.56,14.65,0,20.47-6.69,22.8-10.38.68-1.06,3.3-.58,3.3,1.07,0,4.95-4.17,14.75-10.29,14.75-5.42-.3-10.76-.59-18.91-.59-8.93,0-19.5-.29-28.32.59C536.89,763.07,536.5,759.68,537.28,759.48Z"/><path class="cls-1" d="M612.4,759.48c5-.67,8.06-2.62,8.06-8.73V706.91c0-6.11-3.11-8-8.06-8.73-.77-.1-.19-3.3.59-3.3h26.58c.77,0,1.36,3.2.58,3.3-4.17.58-8,1.94-8,8.73v43.84c0,6.79,3.88,8.15,8,8.73.78.1.19,3.3-.58,3.3H613C612.21,762.78,611.63,759.58,612.4,759.48Z"/><path class="cls-1" d="M660.59,730.09c0-16.78,10.28-36.76,37.45-36.76,11.24,0,21,3.49,19.78,6.89L716.56,704c-3.49,10.38-7.28-2.91-24.54-2.91-13.87,0-20.66,9-20.66,23,0,21.83,16.59,30.94,29.88,30.94,1.74,0,10.57-1.36,15.61-4.56.78-.48,2.82,1.75,2.24,2.62-4.18,6.11-17.18,11.26-20.18,11.26C682.61,764.34,660.59,754.82,660.59,730.09Z"/><path class="cls-1" d="M807.6,762.78H782c-1.26,0-1.36-3.1-.29-3.3,3.59-.67,7.47-1.94,3.88-10.28l-1.06-2.42c-1-2.33-2.62-2.53-5.53-2.53h-19.8c-2.9,0-4.55.2-5.52,2.53l-1,2.42c-3.39,8.34.29,9.61,4.95,10.28,1.26.2,1,3.3-.29,3.3h-21c-1.16,0-1.45-3.1-.29-3.3,4-.67,6.3-2,9.89-10.28l16.4-37.64c3.78-8.53,4.94-12.51,4.94-16.2,0-.58,6.79-2.12,7.08-1.45l23.67,55.2c3.49,8.24,5.82,9.79,9.7,10.37C809.15,759.68,808.76,762.78,807.6,762.78Zm-27.07-25.51-11.34-27.16-11.45,27.16c-.58,1.36.87,1.55,2.23,1.55h18.34C779.66,738.82,781.12,738.63,780.53,737.27Z"/><path class="cls-1" d="M67.41,873c5.63-1.45,10-2.33,10-9.5V820.47c0-6.21-4-7.86-8.15-8.93-.77-.19-.29-3.39.49-3.29a101.61,101.61,0,0,0,12.13.58c7.56,0,14.35-.58,19.3-.58,23.47,0,36.17,14,36.17,32.69s-12.7,35.6-36.27,35.6c-4.66,0-10.67-.59-17.85-.59a140.3,140.3,0,0,0-15.23.59C67,876.63,66.64,873.24,67.41,873Zm58.3-26.58c0-18.52-10.09-33.07-27.55-33.07-6.88,0-9.12,2.13-9.12,7.08v43.07c0,5.24,3.59,7.85,13,7.85C117.85,871.39,125.71,862.86,125.71,846.46Z"/><path class="cls-1" d="M158.35,842.78c0-19.59,14-35.89,35.21-35.89,20.28,0,35,14.84,35,35,0,19.69-13.86,36-35.2,36C173.19,877.9,158.35,863,158.35,842.78ZM217,847.34c0-19.6-13.3-33.85-27.26-33.85-8.54,0-19.79,5.62-19.79,23.85,0,19.8,13.29,33.95,27.16,33.95C205.68,871.29,217,865.67,217,847.34Z"/><path class="cls-1" d="M334.06,876.34H308.74c-.68,0-1.17-3.2-.58-3.3,4.07-.67,7.08-2.62,6.79-8.73l-1.85-32.59-15.71,32a53.62,53.62,0,0,0-3.88,10c-.19,1.17-2.23,1.75-3.78,1.75a3,3,0,0,1-3-1.75l-22.41-42.49-1.45,33.08c-.29,6.79,3.68,8.35,6.79,8.73.77.1.19,3.3-.49,3.3H249.09c-.78,0-1.36-3.2-.59-3.3,4.18-.48,7.67-1.94,8.05-8.73l3.11-55.68c.1-1.64,3.78-1.74,4.75,0l28.13,52.58,26.09-52.58c.88-1.74,4.76-1.64,4.86,0l3.1,55.68c.39,6.79,3.88,8.25,8,8.73C335.32,873.14,334.73,876.34,334.06,876.34Z"/><path class="cls-1" d="M353.89,873c4.95-.67,8.05-2.62,8.05-8.73V820.47c0-6.11-3.1-8.05-8.05-8.73-.78-.1-.2-3.3.59-3.3h26.57c.77,0,1.36,3.2.58,3.3-4.17.58-8.05,1.94-8.05,8.73v43.84c0,6.79,3.88,8.15,8.05,8.73.78.1.19,3.3-.58,3.3H354.48C353.69,876.34,353.11,873.14,353.89,873Z"/><path class="cls-1" d="M461.34,875.47l-46.17-48.31V864c0,6.6,3.88,7.67,9.41,9,.77.2.39,3.3-.58,3.3H401c-.78,0-1.36-3-.49-3.3,4.08-1.35,8-2.13,8-9V826.39c0-6.89-1.07-10.19-3.59-13.58-.88-1.17-1.75-1.94-1.75-2.23a2,2,0,0,1,1.94-2.14h7.18a2.66,2.66,0,0,1,2.33.87l45.2,47.83V820.66c0-6.88-4.36-7.66-9.41-8.92-.78-.2-.39-3.3.58-3.3h23c.78,0,1.26,3.1.49,3.3-4.27,1.26-8,2-8,8.92V858.4c0,6.4.2,13.48,1.17,17.07.39,1.45-1.17,1.84-2.72,1.84A4.43,4.43,0,0,1,461.34,875.47Z"/><path class="cls-1" d="M493.78,873c5-.67,8.06-2.62,8.06-8.73V820.47c0-6.11-3.11-8.05-8.06-8.73-.77-.1-.19-3.3.59-3.3h26.57c.78,0,1.37,3.2.59,3.3-4.17.58-8,1.94-8,8.73v43.84c0,6.79,3.88,8.15,8,8.73.78.1.19,3.3-.59,3.3H494.37C493.59,876.34,493,873.14,493.78,873Z"/><path class="cls-1" d="M542,843.65c0-16.78,10.28-36.76,37.44-36.76,11.24,0,21,3.49,19.78,6.89l-1.26,3.78c-3.49,10.38-7.28-2.91-24.54-2.91-13.87,0-20.66,9-20.66,23,0,21.83,16.59,30.94,29.88,30.94,1.74,0,10.57-1.36,15.61-4.56.78-.48,2.82,1.75,2.24,2.62-4.18,6.11-17.17,11.26-20.18,11.26C564,877.9,542,868.38,542,843.65Z"/><path class="cls-1" d="M689,876.34H663.37c-1.26,0-1.36-3.1-.29-3.3,3.59-.67,7.47-1.94,3.88-10.28l-1.07-2.42c-1-2.33-2.62-2.53-5.53-2.53H640.57c-2.9,0-4.55.2-5.52,2.53l-1,2.42c-3.39,8.34.29,9.61,4.95,10.28,1.26.2,1,3.3-.29,3.3h-21c-1.16,0-1.45-3.1-.29-3.3,4-.67,6.3-2,9.89-10.28l16.4-37.64c3.78-8.53,4.94-12.51,4.94-16.2,0-.58,6.79-2.12,7.08-1.45l23.67,55.2c3.49,8.24,5.82,9.79,9.7,10.37C690.53,873.24,690.14,876.34,689,876.34Zm-27.07-25.51-11.34-27.16-11.45,27.16c-.58,1.36.87,1.55,2.23,1.55h18.34C661,852.38,662.5,852.19,661.91,850.83Z"/><path class="cls-1" d="M767.89,875.47l-46.17-48.31V864c0,6.6,3.88,7.67,9.41,9,.77.2.39,3.3-.58,3.3h-23c-.78,0-1.36-3-.49-3.3,4.08-1.35,8-2.13,8-9V826.39c0-6.89-1.07-10.19-3.59-13.58-.88-1.17-1.75-1.94-1.75-2.23a2,2,0,0,1,1.95-2.14h7.17a2.66,2.66,0,0,1,2.33.87l45.2,47.83V820.66c0-6.88-4.36-7.66-9.41-8.92-.77-.2-.39-3.3.58-3.3h23c.78,0,1.26,3.1.49,3.3-4.27,1.26-8,2-8,8.92V858.4c0,6.4.2,13.48,1.17,17.07.39,1.45-1.17,1.84-2.72,1.84A4.43,4.43,0,0,1,767.89,875.47Z"/><path class="cls-1" d="M867.94,876.34h-25.6c-1.27,0-1.36-3.1-.29-3.3,3.59-.67,7.46-1.94,3.88-10.28l-1.07-2.42c-1-2.33-2.62-2.53-5.53-2.53H819.54c-2.9,0-4.56.2-5.52,2.53l-1,2.42c-3.39,8.34.29,9.61,5,10.28,1.26.2,1,3.3-.29,3.3h-21c-1.17,0-1.46-3.1-.29-3.3,4-.67,6.3-2,9.89-10.28l16.39-37.64c3.79-8.53,5-12.51,5-16.2,0-.58,6.79-2.12,7.08-1.45l23.67,55.2c3.49,8.24,5.82,9.79,9.7,10.37C869.5,873.24,869.11,876.34,867.94,876.34Zm-27.06-25.51-11.34-27.16-11.45,27.16c-.58,1.36.87,1.55,2.23,1.55h18.33C840,852.38,841.47,852.19,840.88,850.83Z"/><path class="cls-1" d="M119,631.12V631c0-12.79,9.4-24.12,23.39-24.12,7.87,0,12.73,2.26,17.41,6.2l-3.41,4a19.84,19.84,0,0,0-14.19-5.34c-10.33,0-17.73,8.74-17.73,19.13V631c0,11.13,7.13,19.39,18.45,19.39a21.94,21.94,0,0,0,13.47-4.66v-11.6H142.16v-4.73h19.26V648a28.31,28.31,0,0,1-18.73,7.14c-14.66,0-23.73-10.67-23.73-24"/><path class="cls-1" d="M220.92,631.12V631c0-10.6-7.73-19.26-18.39-19.26s-18.26,8.53-18.26,19.13V631c0,10.6,7.74,19.27,18.4,19.27s18.25-8.54,18.25-19.13m-42.11,0V631c0-12.86,9.66-24.12,23.86-24.12s23.72,11.13,23.72,24c.07.07.07.07,0,.13,0,12.87-9.66,24.14-23.86,24.14s-23.72-11.14-23.72-24"/><path class="cls-1" d="M266,649.57c7.07,0,11.47-3.13,11.47-8.32v-.13c0-5.07-4.27-8-12.4-8H250.32v16.45Zm-1.86-21.12c6.33,0,10.73-2.86,10.73-8.33V620c0-4.6-3.67-7.6-10.33-7.6H250.32v16.06Zm-19-20.79H265c5.34,0,9.53,1.53,12.2,4.13a10.39,10.39,0,0,1,3,7.47v.13c0,6.07-3.73,9.2-7.39,10.79,5.52,1.68,10,4.87,10,11.27v.14c0,8-6.73,12.73-16.93,12.73H245.11Z"/><rect class="cls-1" x="301.3" y="607.66" width="5.27" height="46.66"/><polygon class="cls-1" points="327.81 607.66 361.54 607.66 361.54 612.45 333.08 612.45 333.08 628.39 358.54 628.39 358.54 633.19 333.08 633.19 333.08 649.51 361.87 649.51 361.87 654.32 327.81 654.32 327.81 607.66"/><path class="cls-1" d="M399.65,631.46c7,0,12-3.6,12-9.6v-.14c0-5.73-4.4-9.19-11.92-9.19H385.32v18.93Zm-19.59-23.8h20.06c5.74,0,10.33,1.73,13.26,4.66a12.9,12.9,0,0,1,3.61,9.2v.13c0,7.74-5.34,12.27-12.67,13.6l14.33,19.07h-6.47l-13.52-18.14H385.32v18.14h-5.26Z"/><polygon class="cls-1" points="435.83 607.66 440.77 607.66 470.16 645.04 470.16 607.66 475.29 607.66 475.29 654.32 471.1 654.32 440.97 616.05 440.97 654.32 435.83 654.32 435.83 607.66"/><path class="cls-1" d="M536.13,631.12V631c0-10.6-7.73-19.26-18.39-19.26s-18.26,8.53-18.26,19.13V631c0,10.6,7.72,19.27,18.39,19.27s18.26-8.54,18.26-19.13m-42.12,0V631c0-12.86,9.66-24.12,23.86-24.12s23.73,11.13,23.73,24c.07.07.07.07,0,.13,0,12.87-9.67,24.14-23.86,24.14S494,644,494,631.12"/><path class="cls-1" d="M604.1,649.45c11.8,0,19.32-8,19.32-18.33V631c0-10.33-7.52-18.46-19.32-18.46H593.17v36.92Zm-16.19-41.79H604.1c14.66,0,24.79,10.06,24.79,23.19V631c0,13.13-10.13,23.33-24.79,23.33H587.91Z"/><polygon class="cls-1" points="647.61 607.66 681.34 607.66 681.34 612.45 652.88 612.45 652.88 628.39 678.34 628.39 678.34 633.19 652.88 633.19 652.88 649.51 681.67 649.51 681.67 654.32 647.61 654.32 647.61 607.66"/><polygon class="cls-1" points="727.45 607.66 732.71 607.66 732.71 649.45 758.97 649.45 758.97 654.32 727.45 654.32 727.45 607.66"/><path class="cls-1" d="M806.55,637.24,796,613.46,785.3,637.24Zm-13-29.91h4.92l21.27,47h-5.67L808.62,642h-25.4l-5.52,12.32h-5.4Z"/></svg>